<?xml version="1.0" encoding="UTF-8" standalone="no"?>
<!-- Created with Inkscape (http://www.inkscape.org/) -->

<svg
   width="240.26566mm"
   height="185.20833mm"
   viewBox="0 0 240.26566 185.20833"
   version="1.1"
   id="svg5"
   xml:space="preserve"
   inkscape:version="1.2 (dc2aeda, 2022-05-15)"
   sodipodi:docname="Logo Gadlains copie.svg"
   xmlns:inkscape="http://www.inkscape.org/namespaces/inkscape"
   xmlns:sodipodi="http://sodipodi.sourceforge.net/DTD/sodipodi-0.dtd"
   xmlns="http://www.w3.org/2000/svg"
   xmlns:svg="http://www.w3.org/2000/svg"><sodipodi:namedview
   id="namedview7"
   pagecolor="#ffffff"
   bordercolor="#000000"
   borderopacity="0.25"
   inkscape:showpageshadow="2"
   inkscape:pageopacity="0.0"
   inkscape:pagecheckerboard="0"
   inkscape:deskcolor="#d1d1d1"
   inkscape:document-units="mm"
   showgrid="false"
   inkscape:zoom="0.097753828"
   inkscape:cx="-1820.9006"
   inkscape:cy="772.34827"
   inkscape:window-width="1440"
   inkscape:window-height="737"
   inkscape:window-x="0"
   inkscape:window-y="25"
   inkscape:window-maximized="0"
   inkscape:current-layer="svg5"
   showguides="false" /><defs
   id="defs2" /><g
   inkscape:label="Calque 1"
   inkscape:groupmode="layer"
   id="layer1"
   transform="translate(-6.5632034,-28.586736)" />
           <g
   viewBox="0 0 48 37"
   id="puma-logo"
   transform="matrix(5.0055816,0,0,5.0055816,0.0019023,5.8406749e-4)"><path
     d="m 47.689,0.517 c -0.834,-1.066 -2.291,-0.213 -2.933,0.16 -4.569,2.692 -5.243,7.432 -6.834,10.154 -1.253,2.178 -3.304,3.779 -5.159,3.903 -1.373,0.098 -2.861,-0.167 -4.338,-0.81 -3.613,-1.562 -5.56,-3.583 -6.034,-3.94 -0.973,-0.739 -8.459,-8.03 -14.559,-8.327 0,0 -0.744,-1.5 -0.93,-1.526 C 6.457,0.08 6,1.033 5.669,1.133 5.369,1.238 4.844,0.109 4.539,0.158 4.233,0.2 3.936,1.33 3.34,1.913 2.901,2.338 2.367,2.311 2.065,2.839 1.961,3.031 1.997,3.369 1.879,3.679 1.626,4.32 0.777,4.387 0.769,5.073 0.769,5.835 1.483,5.98 2.107,6.511 2.603,6.936 2.637,7.236 3.216,7.435 3.731,7.611 4.48,7.061 5.144,7.258 5.697,7.421 6.229,7.537 6.348,8.104 6.456,8.617 6.348,9.42 5.666,9.33 5.444,9.3 4.472,8.982 3.271,9.11 1.821,9.264 0.166,9.728 0.004,11.33 c -0.083,0.895 1.028,1.942 2.11,1.733 0.742,-0.143 0.392,-1.013 0.797,-1.433 0.535,-0.541 3.545,1.888 6.344,1.888 1.186,0 2.063,-0.3 2.935,-1.21 0.078,-0.057 0.185,-0.203 0.31,-0.218 0.113,0.015 0.324,0.128 0.39,0.175 2.262,1.793 3.967,5.399 12.26,5.441 1.164,0.014 2.498,0.558 3.591,1.553 0.96,0.866 1.528,2.251 2.075,3.65 0.836,2.106 2.322,4.139 4.584,6.407 0.119,0.135 1.98,1.561 2.119,1.666 0.025,0.021 0.168,0.334 0.106,0.51 -0.039,1.38 -0.245,5.34 2.731,5.506 0.731,0.04 0.549,-0.463 0.549,-0.82 -0.01,-0.683 -0.129,-1.371 0.226,-2.08 0.507,-0.957 -1.051,-1.418 -1.017,-3.513 0.037,-1.567 -1.291,-1.302 -1.969,-2.498 -0.381,-0.687 -0.736,-1.065 -0.699,-1.894 0.145,-4.76 -1.034,-7.896 -1.61,-8.654 -0.455,-0.587 -0.847,-0.806 -0.414,-1.078 2.481,-1.632 3.05,-3.15 3.05,-3.15 1.32,-3.081 2.512,-5.89 4.15,-7.138 0.332,-0.241 1.177,-0.88 1.703,-1.12 1.527,-0.725 2.346,-1.156 2.777,-1.576 0.711,-0.675 1.27,-2.107 0.588,-2.96 z"
     id="path167" /></g></svg>
